<svg xmlns="http://www.w3.org/2000/svg" viewBox="0 0 153.99 26.82" height="101.36" width="582.02">
  <g fill="#1d4d99">
    <path d="M69.8 6.88a7.43 7.43 0 0 0-3.85-1.05 7.7 7.7 0 0 0-2.92.54 6.44 6.44 0 0 0-3.74 3.86c-.34.9-.51 1.87-.51 2.9 0 1.08.17 2.06.53 2.96a6.77 6.77 0 0 0 6.5 4.35c.7 0 1.44-.08 2.22-.25.79-.17 1.4-.4 1.85-.66l.16 2.6c-.63.26-1.3.44-2.05.53-.74.09-1.47.13-2.2.13-1.47 0-2.8-.22-4.02-.68a8.56 8.56 0 0 1-5.14-5.06c-.46-1.2-.69-2.53-.69-4 0-1.4.24-2.7.72-3.89a8.62 8.62 0 0 1 2.06-3.05c.9-.84 1.95-1.5 3.16-1.95a11.1 11.1 0 0 1 3.93-.68c1.59 0 2.99.27 4.2.8zm27.68-.27c-.74-.29-1.35-.49-1.81-.6a7.06 7.06 0 0 0-2.85-.06 3.5 3.5 0 0 0-1.06.4c-.32.2-.58.45-.76.78-.19.33-.28.73-.28 1.2 0 .69.25 1.24.77 1.66.52.42 1.33.9 2.44 1.43.76.36 1.4.68 1.88.97.5.28.97.64 1.42 1.08a5.03 5.03 0 0 1 1.51 3.76c0 .96-.17 1.8-.52 2.51-.35.72-.83 1.3-1.46 1.74-.62.45-1.34.78-2.15 1-.81.2-1.7.31-2.69.31a8 8 0 0 1-1.8-.2 20.4 20.4 0 0 1-2.03-.57l.27-2.49a16 16 0 0 0 1.92.63c.7.19 1.35.28 1.96.28.41 0 .83-.06 1.26-.17.43-.12.82-.3 1.19-.55a2.83 2.83 0 0 0 1.22-2.33c0-.46-.1-.87-.28-1.22a3.64 3.64 0 0 0-.8-.97 13.2 13.2 0 0 0-2.43-1.37c-.73-.35-1.33-.66-1.8-.92a7.04 7.04 0 0 1-1.33-.98 4.3 4.3 0 0 1-1.39-3.37c0-1.6.56-2.85 1.69-3.74a6.72 6.72 0 0 1 4.3-1.34 12.71 12.71 0 0 1 3.99.66zm43.86.27a7.78 7.78 0 0 0-6.77-.5 6.45 6.45 0 0 0-3.74 3.85c-.34.9-.5 1.87-.5 2.9 0 1.08.17 2.06.53 2.96a6.78 6.78 0 0 0 6.5 4.35c.7 0 1.43-.08 2.22-.25.78-.17 1.4-.4 1.84-.66l.16 2.6c-.62.26-1.3.44-2.04.53-.74.09-1.48.13-2.21.13-1.46 0-2.8-.22-4.01-.68a8.56 8.56 0 0 1-5.14-5.06c-.46-1.2-.7-2.53-.7-4 0-1.4.25-2.7.73-3.89a8.62 8.62 0 0 1 2.06-3.05 9.24 9.24 0 0 1 3.15-1.95 11.1 11.1 0 0 1 3.94-.68c1.58 0 2.98.27 4.2.8zm-32.85 19.14a.64.64 0 1 1-1.2-.43.64.64 0 0 1 1.2.43m8.62-22.77a.63.63 0 0 0-.36 1.15l-8.69 20.42a1 1 0 1 0 .34.13l8.7-20.44a.63.63 0 1 0 0-1.26m27.7-1.65a.64.64 0 1 1 .43-1.2.64.64 0 0 1-.43 1.2m1.98 24a.64.64 0 1 1 1.2.43.64.64 0 0 1-1.2-.44M154 6.15V3.8h-8.8V2a1 1 0 0 0 .17-1.94 1 1 0 1 0-.53 1.94v20.15c0 .38.18.67.42 1.09l1.34 1.93a1 1 0 0 0 .44 1.58 1 1 0 0 0 .69-1.9 1 1 0 0 0-.88.1L145.5 23a2.37 2.37 0 0 1-.24-.52H154v-2.35h-7.78v-6.15h7.09V11.6h-7.09V6.15zM82.56 2.03c-.37 0-.67.3-.67.67 0 .15.05.3.14.4l-7.32 7.44V3.8h-2.68v9.46l-.18.18c-.21.22-.36.58-.36.88v8s.04.15.17.15c.14 0 .19-.16.19-.16v-8c-.01-.2.13-.53.27-.66L82.3 3.3c.08.04.16.05.26.05a.67.67 0 0 0 0-1.33"/>
    <path d="M73.54 25.2a.64.64 0 1 1-.43 1.2.64.64 0 0 1 .43-1.2M84.76 1.61a.64.64 0 1 1 .44-1.2.64.64 0 0 1-.44 1.2M77.6 12.63l8.78-8.83H83.7l1.11-1.14c.16-.16.28-.4.33-.65a1 1 0 0 0 .18-1.94 1 1 0 1 0-.69 1.9l.14.03a.95.95 0 0 1-.22.4L73.51 13.75c-.21.22-.36.58-.37.9v10.17a1 1 0 1 0 .36 0v-2.35h1.35v-9.15l8.32 9.15h3.9zm-42.46 6.14c-.24.4-.57.7-.99.92-.42.22-.9.37-1.43.46-.53.09-1.13.13-1.8.13h-2v-6.31h1.74c.68 0 1.29.04 1.83.12.55.08 1.05.23 1.5.46.46.24.82.58 1.1 1.02.28.45.41 1.01.41 1.69 0 .6-.12 1.1-.36 1.5M28.92 6h2.81c.43 0 .85.05 1.25.14.4.09.76.24 1.1.44.32.2.59.5.8.86.2.36.3.81.3 1.35 0 .66-.12 1.2-.36 1.6a2.2 2.2 0 0 1-1.01.91c-.44.2-.93.33-1.46.39-.54.06-1.19.1-1.96.1h-1.47zm1.75 18.53a.64.64 0 1 1-.82.38l.03-.05a.64.64 0 0 1 .79-.33M27.1 1.6a.64.64 0 1 1 .44-1.2.64.64 0 0 1-.44 1.2m10.05 12.78A4.8 4.8 0 0 0 34 13v-.05c1.24-.3 2.2-.81 2.86-1.53.66-.7.99-1.68.99-2.91 0-1.64-.58-2.84-1.73-3.59-1.15-.74-2.76-1.12-4.83-1.12h-3.8V2A1 1 0 1 0 26.36.66 1 1 0 0 0 27.15 2v19.52c0 .36.18.78.43 1.04l2.01 2.02a1 1 0 1 0 .24-.26L28 22.46h3.22c1.02 0 1.95-.07 2.8-.22a6.9 6.9 0 0 0 2.25-.8 4.01 4.01 0 0 0 1.52-1.53 4.9 4.9 0 0 0 .55-2.42c0-1.29-.4-2.33-1.2-3.13M66.09 1.23a.64.64 0 1 1-1.2-.44.64.64 0 0 1 1.2.44M65.83.07a1 1 0 0 0-1.3.6L64.5.8H51.7c-.37 0-.8.18-1.05.44l-.78.91c-.25.26-.45.72-.46 1.08 0 0-.02.16-.01.3 0 .15.05.38.05.38l8.9 21.77a.63.63 0 1 0 1 .5.63.63 0 0 0-.62-.63h-.03L49.8 3.86c-.06-.23-.05-.57-.05-.57 0-.23.2-.71.37-.87l.77-.92c.16-.17.56-.34.8-.33h12.79a1 1 0 0 0 1.94.2 1 1 0 0 0-.6-1.3m49.59 15.5l3.72-9.25 3.72 9.25zM119.37.8a.64.64 0 1 1 1.2.43.64.64 0 0 1-1.2-.43m1.26 3.01h-1.6l.77-1.8a1 1 0 1 0-.35-.12l-8.8 20.86-.02.3v.29c.01.36.2.78.46 1.05l1.18 1.16c.26.25.68.43 1.05.44h5.38a.63.63 0 0 0 1.23-.18.63.63 0 1 0-1.23-.19h-5.38c-.23.01-.64-.16-.8-.32l-1.18-1.17c-.17-.16-.33-.6-.33-.82 0 0-.02-.35.02-.5l.13-.33h1.5l1.9-4.7h9.14l1.9 4.7h2.92zm24.21 20.43a.61.61 0 0 0-.16.02l-.79-1.22a1.8 1.8 0 0 1-.31-.85V4.04s-.04-.24-.18-.24c-.1 0-.15.16-.17.23V22.2c0 .38.16.76.4 1.1l.73 1.17a.63.63 0 1 0 .48-.22"/>
    <path d="M28.17 25.58v-.04c0-.05-.01-.2-.03-.25 0 0-.15-.53-.35-.8a1.29 1.29 0 0 0-.13-.16l-1.35-1.36a1.45 1.45 0 0 1-.14-.2s-.07-.1-.12-.22c-.06-.13-.1-.27-.11-.33l-.04-.32V4.03c0-.06-.09-.23-.18-.23-.1 0-.19.17-.19.23v17.9l.03.26c.01.1.06.29.15.49.05.12.12.25.19.37l.12.15 1.38 1.37c.04.04.05.04.13.17.09.13.27.6.27.6a1 1 0 0 1 .02.2v.05a.63.63 0 1 0 .81.6c0-.3-.2-.53-.46-.6m15.67-10.02l3.72-9.25 3.72 9.25zM47 1.63a.64.64 0 0 1-.2.03.64.64 0 0 1-.24-1.23.64.64 0 0 1 .44 1.2m9.24 22.11h-.06l-8.9-21.86a1 1 0 1 0-.34.13l.73 1.8h-1.4l-7.98 18.66h2.8l1.9-4.7h9.16l1.9 4.7h1.22l.57 1.41a.63.63 0 0 0 .4 1.12.63.63 0 1 0 0-1.26m53.03-12.85c-.23.43-.52.77-.89 1.03a3.7 3.7 0 0 1-1.2.56 5 5 0 0 1-1.32.18h-2.65v-6.5h2.27a5.55 5.55 0 0 1 2.73.74c.4.25.74.59 1 1 .26.43.39.91.39 1.47 0 .58-.11 1.1-.33 1.52M100 1.23a.64.64 0 1 1 1.2-.44.64.64 0 0 1-1.2.44M96.26 26.4a.64.64 0 1 1-.44-1.2.64.64 0 0 1 .44 1.2M111.9 6.76a4.33 4.33 0 0 0-1.5-1.73 6.74 6.74 0 0 0-2.2-.94 11.9 11.9 0 0 0-2.77-.29h-4.65V2a1 1 0 1 0-.35 0v20.45a2 2 0 0 1-.32.9s-.97 1.52-1.08 1.67c-.1.15-.3.31-.3.31-.14.14-.74.38-.93.37h-.76a1 1 0 1 0-.02.33h.79c.31 0 .7-.16.97-.3.37-.2.6-.6.81-.93.22-.32.72-1.12.77-1.2.26-.42.4-.75.42-1.13h2.43v-7.46h2.62c.9 0 1.73-.1 2.51-.3a6.34 6.34 0 0 0 2.1-.98 4.68 4.68 0 0 0 1.46-1.76c.36-.72.54-1.58.54-2.58 0-1.03-.18-1.91-.54-2.63M18.94 24.78l-15.5.02c-.2 0-.64 0-.88-.19-.24-.2-.27-.24-.37-.37-.1-.12-1.02-1.47-1.02-1.47-.2-.34-.33-.65-.33-.9V10.4A.67.67 0 1 0 0 9.74c0 .3.2.56.49.64v11.49c0 .38.18.78.45 1.15l.14.22c.21.33.39.55.6.87.22.33.44.67.8.86.28.15.64.15.96.15h15.5s.3.02.3-.17c0-.2-.3-.18-.3-.18"/>
    <path d="M21.68 6.63a.65.65 0 0 1-.68.43l-.13-.03a.65.65 0 0 1-.11-.05l-4.93 5.15-.58.61c.05.12.08.25.06.37a.64.64 0 1 1-1.1-.53.63.63 0 0 1 .78-.13l.58-.6 4.92-5.14a.65.65 0 0 1-.04-.53c.12-.34.5-.51.84-.39h.01c.33.14.5.5.38.84M19.3 20.34a.21.21 0 0 1-.3 0l-6.57-6.93-6.56 6.92a.21.21 0 0 1-.3.01.21.21 0 0 1-.02-.3l6.58-6.95-6.58-6.94a.21.21 0 1 1 .32-.3l6.56 6.93 6.56-6.92a.21.21 0 0 1 .3-.01c.1.08.1.21.02.3l-6.58 6.94 6.58 6.95c.08.08.07.22-.01.3M4.53 19.5v.15a.65.65 0 1 1-1.26-.31.65.65 0 0 1 .38-.39h.02a.7.7 0 0 1 .11-.04h.19l.13.03.1.06 4.86-5.1.58-.6a.61.61 0 0 1 .11-.7.63.63 0 1 1 .92.87.61.61 0 0 1-.76.13l-.57.59-4.87 5.09c.03.07.06.14.06.22m16.9-14.08l-.13-.03v-.44c0-.63-.51-1.15-1.15-1.15H4.68c-.64 0-1.15.52-1.15 1.15v13.66a1.02 1.02 0 0 0 .34 2 57.2 57.2 0 0 0 1.24 1.67c.13.12.36.19.64.19h14.4c.64 0 1.15-.52 1.15-1.15V7.39a1.03 1.03 0 0 0 .12-1.97"/>
    <path d="M1.53 2.38a.64.64 0 1 1 1.2.44.64.64 0 0 1-1.2-.44m20.63 20.63c-.3 0-.56.2-.64.48l-16.63.02c-.2.01-.7 0-.96-.24-.2-.18-1.3-1.8-1.3-1.8a1.9 1.9 0 0 1-.33-.88V3.6a1 1 0 0 0 .82-.84h14.1c.22 0 .46-.08.67-.18a.63.63 0 0 0 1.04-.48.63.63 0 1 0-1.23.17c-.17.08-.35.13-.48.13H3.11a1 1 0 0 0-1.93-.14 1 1 0 0 0 .77 1.34v16.99a2 2 0 0 0 .45 1.15l.14.22c.2.33.39.55.6.88.22.33.44.66.8.86.28.14.64.14.96.15h16.62a.67.67 0 0 0 1.3-.17.66.66 0 0 0-.66-.67"/>
  </g>
</svg>
