<svg xmlns="http://www.w3.org/2000/svg" width="106" height="51">
  <g stroke="#2462AA" stroke-miterlimit="10">
    <circle fill="none" cx="3.5" cy="24.5" r="2.5"/>
    <circle fill="#2462AA" cx="28.5" cy="47.5" r="2.5"/>
    <path fill="none" d="M3.51 26.98v8l13.95 12.53h8.63"/>
  </g>
  <path fill="#2462AA" d="M13.13 0h87.74c1.79 0 2.43.19 3.08.53a3.6 3.6 0 0 1 1.52 1.52c.34.65.53 1.29.53 3.08v32.74c0 1.79-.19 2.43-.53 3.08a3.6 3.6 0 0 1-1.52 1.52c-.65.34-1.29.53-3.08.53H21.86c-1 0-1.34-.03-1.71-.11a3.28 3.28 0 0 1-1.05-.41c-.33-.19-.61-.4-1.34-1.07l-7.84-7.16a7.1 7.1 0 0 1-1.28-1.36 3.82 3.82 0 0 1-.5-1.13c-.1-.41-.14-.79-.14-1.86V5.13c0-1.79.19-2.43.53-3.08A3.6 3.6 0 0 1 10.05.53C10.7.19 11.34 0 13.13 0zm0 0"/>
  <text fill="#FFF" font-family="LucidaGrande-Bold, 'Lucida Grande', 'Lucida Sans Unicode', 'Lucida Sans', Geneva, Verdana, sans-serif" font-weight="bold" font-size="20" x="25.71" y="11" text-anchor="middle">
    <tspan x="57" y="30">DOOR</tspan>
  </text>
</svg>
